<svg xmlns="http://www.w3.org/2000/svg" viewBox="4 4 92 92"><path d="M47.12 57.27 L47.85 57.06 L48.57 56.84 L49.31 56.59 L50.04 56.34 L50.78 56.07 L51.52 55.79 L52.26 55.50 L53.01 55.19 L53.75 54.86 L54.50 54.53 L55.24 54.18 L55.98 53.81 L56.72 53.44 L57.46 53.05 L58.20 52.64 L58.93 52.23 L59.66 51.80 L60.39 51.35 L61.11 50.90 L61.82 50.43 L62.53 49.95 L63.24 49.45 L63.93 48.94 L64.62 48.42 L65.30 47.89 L65.97 47.34 L66.63 46.78 L67.28 46.21 L67.92 45.62 L68.55 45.03 L69.17 44.42 L69.77 43.79 L70.36 43.16 L70.94 42.51 L71.50 41.85 L72.05 41.18 L72.58 40.50 L73.10 39.81 L73.60 39.10 L74.21 38.17 L74.73 36.91 L75.10 35.77 L75.40 34.63 L75.61 33.50 L75.74 32.37 L75.79 31.24 L75.76 30.13 L75.66 29.03 L75.49 27.94 L75.24 26.87 L74.92 25.82 L74.54 24.78 L74.09 23.77 L73.59 22.78 L73.02 21.81 L72.40 20.87 L71.72 19.95 L70.99 19.06 L70.21 18.20 L69.38 17.37 L68.51 16.56 L67.58 15.79 L66.62 15.05 L65.61 14.35 L64.56 13.68 L63.47 13.04 L62.35 12.45 L61.18 11.89 L59.99 11.38 L58.75 10.91 L57.49 10.49 L56.19 10.11 L54.87 9.78 L53.52 9.51 L52.13 9.29 L50.73 9.13 L49.30 9.03 L47.85 8.99 L46.38 9.01 L44.53 9.18 L42.63 9.58 L41.07 9.99 L39.54 10.49 L38.05 11.09 L36.59 11.77 L35.18 12.54 L33.82 13.38 L32.50 14.31 L31.24 15.31 L30.04 16.37 L28.89 17.50 L27.80 18.69 L26.77 19.93 L25.80 21.22 L24.89 22.56 L24.04 23.94 L23.25 25.36 L22.53 26.82 L21.86 28.31 L21.26 29.84 L20.72 31.39 L20.23 32.96 L19.81 34.56 L19.45 36.17 L19.15 37.81 L18.91 39.45 L18.73 41.11 L18.61 42.78 L18.55 44.46 L18.55 46.14 L18.62 47.82 L18.74 49.51 L18.93 51.19 L19.17 52.87 L19.48 54.54 L19.85 56.20 L20.28 57.85 L20.77 59.48 L21.32 61.09 L21.99 62.85 L22.78 64.52 L23.59 65.99 L24.47 67.42 L25.41 68.79 L26.40 70.10 L27.45 71.36 L28.55 72.56 L29.69 73.71 L30.87 74.80 L32.09 75.83 L33.35 76.81 L34.63 77.74 L35.95 78.61 L37.30 79.42 L38.67 80.18 L40.06 80.88 L41.47 81.53 L42.89 82.11 L44.34 82.64 L45.79 83.12 L47.25 83.53 L48.72 83.88 L50.20 84.18 L51.68 84.41 L53.16 84.58 L54.63 84.68 L56.10 84.73 L57.56 84.70 L59.02 84.62 L60.45 84.46 L61.87 84.24 L63.27 83.95 L64.65 83.59 L66.00 83.16 L67.32 82.65 L68.61 82.08 L69.86 81.44 L71.06 80.73 L72.23 79.95 L73.40 79.07 L74.06 78.46 L74.50 78.00 L74.93 77.52 L75.36 77.04 L75.77 76.54 L76.17 76.04 L76.56 75.53 L76.94 75.01 L77.30 74.48 L77.66 73.95 L78.01 73.41 L78.34 72.86 L78.67 72.31 L78.98 71.75 L79.29 71.18 L79.58 70.61 L79.86 70.03 L80.13 69.45 L80.39 68.87 L80.64 68.28 L80.87 67.68 L81.10 67.08 L81.31 66.48 L81.51 65.88 L81.70 65.27 L81.88 64.66 L82.05 64.05 L82.21 63.43 L82.35 62.81 L82.49 62.20 L82.61 61.58 L82.72 60.96 L82.81 60.34 L82.90 59.72 L82.97 59.10 L83.03 58.48 L83.08 57.86 L83.11 57.25 L83.14 56.63 L83.15 56.02 L82.85 55.98 L82.70 56.57 L82.54 57.15 L82.37 57.73 L82.19 58.31 L82.00 58.89 L81.80 59.46 L81.60 60.03 L81.38 60.59 L81.16 61.15 L80.92 61.71 L80.68 62.26 L80.43 62.81 L80.17 63.35 L79.90 63.88 L79.62 64.41 L79.33 64.94 L79.04 65.46 L78.74 65.97 L78.43 66.47 L78.11 66.97 L77.79 67.46 L77.46 67.95 L77.12 68.42 L76.77 68.89 L76.42 69.35 L76.06 69.80 L75.69 70.25 L75.32 70.68 L74.94 71.11 L74.56 71.52 L74.17 71.92 L73.77 72.32 L73.36 72.70 L72.96 73.08 L72.54 73.44 L72.12 73.79 L71.70 74.13 L71.27 74.46 L70.84 74.78 L70.60 74.93 L69.64 75.33 L68.62 75.69 L67.60 75.98 L66.56 76.20 L65.52 76.36 L64.48 76.47 L63.44 76.51 L62.39 76.50 L61.34 76.44 L60.30 76.32 L59.25 76.15 L58.21 75.94 L57.18 75.68 L56.15 75.37 L55.12 75.01 L54.11 74.62 L53.11 74.18 L52.13 73.70 L51.16 73.19 L50.21 72.63 L49.28 72.05 L48.37 71.43 L47.49 70.78 L46.63 70.10 L45.80 69.39 L45.01 68.65 L44.24 67.90 L43.51 67.12 L42.82 66.32 L42.16 65.51 L41.54 64.68 L40.97 63.84 L40.44 63.00 L39.95 62.14 L39.50 61.29 L39.10 60.43 L38.75 59.57 L38.44 58.71 L38.18 57.86 L38.01 57.15 L37.82 56.19 L37.61 55.07 L37.43 53.94 L37.27 52.80 L37.14 51.67 L37.04 50.53 L36.96 49.40 L36.91 48.27 L36.88 47.14 L36.88 46.02 L36.91 44.90 L36.96 43.79 L37.04 42.69 L37.14 41.61 L37.26 40.53 L37.41 39.48 L37.59 38.43 L37.78 37.41 L38.00 36.40 L38.24 35.41 L38.50 34.45 L38.79 33.51 L39.09 32.59 L39.41 31.69 L39.76 30.82 L40.12 29.97 L40.51 29.15 L40.91 28.36 L41.33 27.59 L41.78 26.85 L42.24 26.13 L42.73 25.44 L43.24 24.76 L43.78 24.12 L44.35 23.49 L44.96 22.89 L45.60 22.31 L46.28 21.76 L47.01 21.23 L47.47 20.82 L48.02 20.60 L48.94 20.34 L49.88 20.12 L50.83 19.94 L51.78 19.81 L52.74 19.72 L53.70 19.67 L54.65 19.67 L55.61 19.70 L56.56 19.78 L57.50 19.89 L58.43 20.05 L59.34 20.25 L60.24 20.48 L61.12 20.75 L61.97 21.06 L62.80 21.40 L63.61 21.78 L64.38 22.19 L65.12 22.63 L65.82 23.10 L66.49 23.60 L67.11 24.13 L67.70 24.68 L68.24 25.26 L68.73 25.86 L69.17 26.47 L69.57 27.11 L69.91 27.77 L70.20 28.44 L70.43 29.13 L70.61 29.83 L70.73 30.55 L70.79 31.29 L70.79 32.03 L70.72 32.79 L70.58 33.56 L70.37 34.35 L70.09 35.15 L69.79 35.83 L69.49 36.24 L69.04 36.86 L68.59 37.48 L68.12 38.09 L67.64 38.70 L67.15 39.31 L66.66 39.91 L66.15 40.51 L65.63 41.10 L65.11 41.69 L64.57 42.28 L64.03 42.86 L63.48 43.43 L62.92 44.00 L62.35 44.57 L61.78 45.13 L61.20 45.69 L60.62 46.24 L60.02 46.78 L59.43 47.32 L58.82 47.85 L58.22 48.38 L57.60 48.90 L56.99 49.42 L56.37 49.93 L55.74 50.43 L55.12 50.93 L54.49 51.42 L53.86 51.90 L53.22 52.38 L52.59 52.85 L51.95 53.31 L51.32 53.76 L50.68 54.21 L50.04 54.65 L49.41 55.08 L48.77 55.50 L48.14 55.92 L47.51 56.33 L46.88 56.73Z M27.15 61.64 L26.74 62.12 L26.35 62.57 L25.96 63.00 L25.56 63.42 L25.16 63.83 L24.75 64.23 L24.35 64.61 L23.94 64.99 L23.53 65.35 L23.11 65.70 L22.70 66.03 L22.29 66.35 L21.87 66.67 L21.46 66.97 L21.04 67.26 L20.63 67.53 L20.21 67.80 L19.80 68.05 L19.38 68.30 L18.97 68.53 L18.56 68.75 L18.15 68.97 L17.75 69.17 L17.34 69.36 L16.94 69.54 L16.54 69.71 L16.15 69.87 L15.75 70.03 L15.36 70.17 L14.97 70.30 L15.03 70.70 L15.44 70.72 L15.87 70.73 L16.31 70.74 L16.76 70.73 L17.22 70.71 L17.68 70.67 L18.15 70.63 L18.64 70.58 L19.12 70.51 L19.62 70.43 L20.12 70.34 L20.64 70.24 L21.15 70.13 L21.68 70.00 L22.21 69.87 L22.75 69.72 L23.29 69.56 L23.84 69.39 L24.40 69.21 L24.96 69.01 L25.53 68.80 L26.10 68.58 L26.68 68.34 L27.26 68.10 L27.85 67.84 L28.45 67.57 L29.05 67.28 L29.65 66.98 L30.26 66.67 L30.85 66.36Z" fill="#eee8df" stroke="#eee8df" stroke-width=".6" stroke-linejoin="round"/><circle cx="10.5" cy="71.5" r="2.3" fill="#eee8df"/></svg>
